<?xml version="1.0" encoding="utf-8"?>

<!DOCTYPE svg PUBLIC "-//W3C//DTD SVG 1.1//EN" "http://www.w3.org/Graphics/SVG/1.1/DTD/svg11.dtd">
<svg version="1.1" id="Layer_1" xmlns="http://www.w3.org/2000/svg" xmlns:xlink="http://www.w3.org/1999/xlink" x="0px" y="0px"
	 viewBox="0 0 1775.816 1775.816" enable-background="new 0 0 1775.816 1775.816" xml:space="preserve">
<g>
	<circle fill="none" stroke="#000000" stroke-width="20" stroke-miterlimit="10" cx="887.908" cy="887.909" r="526.578"/>
	<path fill="none" stroke="#000000" stroke-width="20" stroke-miterlimit="6" d="M687.271,398.652
		c-29.773-52.898-29.024-98.376-10.745-141.291c22.044-51.754,196.146-97.657,211.711-169.453
		c15.566,71.796,189.668,117.699,211.711,169.453c18.279,42.915,19.028,88.394-10.745,141.291"/>
	<path fill="none" stroke="#000000" stroke-width="20" stroke-miterlimit="6" d="M400.08,683.824
		c-58.457-16.352-90.085-49.039-107.506-92.31c-21.008-52.183,69.642-207.75,29.881-269.524
		c61.774,39.761,217.341-50.89,269.524-29.881c43.271,17.421,75.958,49.049,92.31,107.506"/>
	<path fill="none" stroke="#000000" stroke-width="20" stroke-miterlimit="6" d="M398.652,1088.545
		c-52.898,29.773-98.376,29.024-141.291,10.745c-51.754-22.044-97.657-196.146-169.453-211.711
		c71.796-15.566,117.699-189.668,169.453-211.711c42.915-18.279,88.394-19.028,141.291,10.745"/>
	<path fill="none" stroke="#000000" stroke-width="20" stroke-miterlimit="6" d="M683.824,1375.736
		c-16.352,58.457-49.039,90.085-92.31,107.506c-52.183,21.008-207.75-69.642-269.524-29.881
		c39.761-61.774-50.89-217.341-29.881-269.524c17.421-43.271,49.049-75.958,107.506-92.31"/>
	<path fill="none" stroke="#000000" stroke-width="20" stroke-miterlimit="6" d="M1375.736,1091.992
		c58.457,16.352,90.085,49.039,107.506,92.31c21.008,52.183-69.642,207.75-29.881,269.524
		c-61.774-39.761-217.341,50.89-269.524,29.881c-43.271-17.421-75.958-49.049-92.31-107.506"/>
	<path fill="none" stroke="#000000" stroke-width="20" stroke-miterlimit="6" d="M1088.545,1377.164
		c29.773,52.898,29.024,98.376,10.745,141.291c-22.044,51.754-196.146,97.657-211.711,169.453
		c-15.566-71.796-189.668-117.699-211.711-169.453c-18.279-42.915-19.028-88.394,10.745-141.291"/>
	<path fill="none" stroke="#000000" stroke-width="20" stroke-miterlimit="6" d="M1377.164,687.271
		c52.898-29.773,98.376-29.024,141.291-10.745c51.754,22.044,97.657,196.146,169.453,211.711
		c-71.796,15.566-117.699,189.668-169.453,211.711c-42.915,18.279-88.394,19.028-141.291-10.745"/>
	<path fill="none" stroke="#000000" stroke-width="20" stroke-miterlimit="6" d="M1091.992,400.08
		c16.352-58.457,49.039-90.085,92.31-107.506c52.183-21.008,207.75,69.642,269.524,29.881
		c-39.761,61.774,50.89,217.341,29.881,269.524c-17.421,43.271-49.049,75.958-107.506,92.31"/>
</g>
</svg>
